<svg xmlns="http://www.w3.org/2000/svg" viewBox="0 0 128 128"><defs><linearGradient id="folder" x2="0" y2="1"><stop stop-color="#3299f4"/><stop offset="1" stop-color="#0753ad"/></linearGradient></defs><path d="M12 32a10 10 0 0 1 10-10h30l12 14h42a10 10 0 0 1 10 10v50a10 10 0 0 1-10 10H22a10 10 0 0 1-10-10Z" fill="#7ac4ff"/><path d="M12 48h104v48a10 10 0 0 1-10 10H22a10 10 0 0 1-10-10Z" fill="url(#folder)"/><path d="M41 55h40v37H41Z" fill="#fff"/><path d="M46 55v37m30-37v37" stroke="#d5e9ff" stroke-width="3"/><path d="M54 65h20m-20 8h20m-20 8h13" stroke="#0753ad" stroke-width="3" stroke-linecap="round"/></svg>